<?xml version="1.0" standalone="no"?>
<!DOCTYPE svg PUBLIC "-//W3C//DTD SVG 20010904//EN"
 "http://www.w3.org/TR/2001/REC-SVG-20010904/DTD/svg10.dtd">
<svg version="1.0" xmlns="http://www.w3.org/2000/svg"
 width="1200.000000pt" height="630.000000pt" viewBox="0 0 1200.000000 630.000000"
 preserveAspectRatio="xMidYMid meet">

<g transform="translate(0.000000,630.000000) scale(0.100000,-0.100000)"
fill="#000000" stroke="none">
<path d="M2137 5360 c-160 -34 -308 -124 -414 -252 -50 -60 -107 -156 -243
-403 -106 -193 -392 -709 -530 -955 -51 -91 -119 -212 -151 -270 l-59 -105
293 -3 c290 -3 292 -2 307 19 8 12 106 180 217 373 l202 351 674 5 675 5 200
215 c110 118 198 218 195 223 -2 4 -344 7 -759 7 l-755 0 42 78 c75 135 133
225 162 246 28 21 35 21 751 24 l722 3 180 211 c98 116 185 220 192 230 13 17
-17 18 -900 17 -848 0 -919 -2 -1001 -19z"/>
<path d="M4463 5368 c-14 -18 -180 -311 -433 -763 -116 -209 -231 -414 -255
-455 -23 -41 -92 -163 -153 -270 -60 -107 -148 -264 -196 -348 -47 -83 -86
-154 -86 -157 0 -3 390 -5 868 -4 l867 0 68 79 c37 43 128 144 202 226 74 81
135 151 135 156 0 4 -288 9 -639 10 l-640 3 115 205 c64 113 137 243 163 290
27 47 90 159 141 250 51 91 147 260 213 375 66 116 146 256 178 313 l58 102
-298 0 c-227 0 -301 -3 -308 -12z"/>
<path d="M6291 5022 c-107 -196 -310 -566 -452 -822 -141 -256 -302 -546 -357
-645 l-99 -180 1096 -3 1096 -3 25 29 c14 16 107 120 208 231 115 126 178 203
170 206 -7 3 -401 6 -875 8 l-862 2 92 167 92 168 680 0 680 0 185 201 c102
110 187 204 188 209 2 6 -275 10 -747 10 -413 0 -751 3 -751 8 1 4 36 68 79
142 63 110 85 139 117 157 l39 23 710 1 710 1 183 203 c101 112 191 213 199
224 l14 21 -1113 0 -1113 0 -194 -358z"/>
<path d="M8977 5357 c10 -13 59 -72 109 -133 51 -60 199 -237 329 -394 131
-157 243 -285 249 -284 12 1 486 323 486 330 0 5 -39 56 -164 214 -55 69 -129
162 -165 208 l-65 82 -399 0 -398 0 18 -23z"/>
<path d="M10823 5272 c-131 -110 -493 -407 -550 -452 -18 -14 -87 -70 -155
-125 -262 -215 -1220 -982 -1515 -1214 -67 -53 -122 -99 -122 -103 -1 -5 138
-8 309 -8 l310 0 277 227 c280 228 345 281 528 430 55 45 168 137 251 205 84
68 184 148 223 178 40 30 130 100 200 155 70 55 190 147 265 205 76 58 204
157 286 220 81 63 195 151 252 195 56 44 136 106 177 137 l74 58 -341 0 -341
0 -128 -108z"/>
<path d="M10330 4217 c-97 -72 -197 -148 -223 -167 -25 -19 -45 -40 -42 -46 2
-6 26 -40 54 -75 27 -35 105 -134 173 -220 68 -86 155 -197 193 -247 l70 -91
368 0 c292 -1 367 2 361 12 -10 16 -82 109 -224 286 -63 80 -124 157 -135 172
-87 118 -400 504 -409 506 -6 2 -90 -57 -186 -130z"/>
<path d="M1121 2775 c-22 -90 -41 -169 -41 -175 0 -5 16 -10 35 -10 37 0 35
-2 61 103 l6 27 125 0 c117 0 125 1 147 23 14 14 28 46 35 76 15 70 14 78 -9
101 -18 18 -33 20 -169 20 l-149 0 -41 -165z m297 73 c2 -15 -2 -36 -8 -48
-10 -18 -20 -20 -110 -20 -109 0 -107 -1 -89 63 l10 38 97 -3 97 -3 3 -27z"/>
<path d="M2095 2928 c-10 -27 -64 -255 -71 -295 l-7 -43 171 0 c181 0 182 0
182 51 0 18 -9 19 -130 19 -125 0 -130 1 -130 21 0 11 5 29 10 40 10 18 21 19
131 18 66 -1 122 0 124 3 3 2 6 15 7 29 l3 24 -122 3 c-132 3 -133 3 -113 56
l10 26 140 0 c114 0 140 3 140 14 0 8 3 21 6 30 5 14 -14 16 -170 16 -132 0
-178 -3 -181 -12z"/>
<path d="M3015 2918 c-3 -13 -21 -88 -40 -167 -19 -80 -35 -149 -35 -154 0 -4
17 -7 37 -5 36 3 37 4 51 66 l14 63 66 -3 67 -3 36 -60 c32 -54 40 -60 72 -63
44 -4 45 3 12 68 -14 27 -25 51 -25 53 0 3 14 10 30 17 38 16 60 56 67 124 9
83 2 86 -188 86 -156 0 -159 0 -164 -22z m277 -77 c-4 -57 -13 -61 -129 -61
l-105 0 7 33 c15 73 6 68 123 65 l107 -3 -3 -34z"/>
<path d="M3934 2778 c-21 -90 -39 -167 -39 -173 0 -5 16 -10 35 -10 35 0 35 0
50 65 l16 65 124 5 124 5 7 28 7 27 -119 0 c-117 0 -119 0 -119 23 0 12 3 32
6 45 6 21 10 22 145 22 l139 0 0 30 0 30 -168 0 -168 0 -40 -162z"/>
<path d="M4909 2925 c-31 -17 -42 -41 -69 -155 -40 -172 -33 -180 153 -180
139 0 186 12 207 50 12 22 60 221 60 247 0 7 -9 22 -20 33 -18 18 -33 20 -162
20 -104 -1 -150 -5 -169 -15z m266 -55 c7 -11 -22 -164 -37 -192 -8 -16 -24
-18 -123 -18 -62 0 -116 4 -119 9 -9 13 35 181 51 197 17 17 218 20 228 4z"/>
<path d="M5845 2928 c-9 -25 -75 -310 -75 -324 0 -9 12 -14 34 -14 29 0 35 4
40 28 4 15 12 44 17 65 l10 38 67 -3 67 -3 36 -60 c32 -54 40 -60 72 -63 45
-4 46 4 10 70 -21 38 -25 52 -15 55 37 14 64 51 78 108 13 55 12 62 -5 85 -18
25 -21 25 -175 28 -120 2 -158 0 -161 -10z m268 -86 c-2 -56 -14 -62 -126 -62
l-100 0 7 42 c4 22 9 45 12 50 3 5 51 7 107 6 l102 -3 -2 -33z"/>
<path d="M6775 2928 c-10 -32 -75 -311 -75 -324 0 -21 57 -18 68 4 5 9 20 65
33 124 13 60 26 108 29 108 3 0 26 -55 51 -122 43 -117 47 -123 75 -126 16 -1
34 1 39 5 6 5 54 61 109 126 54 65 100 117 101 115 2 -2 -8 -52 -21 -112 -14
-59 -26 -113 -27 -120 -1 -6 14 -12 36 -14 20 -2 37 -1 37 1 0 5 44 201 63
285 l15 62 -49 0 -48 0 -89 -102 c-49 -57 -101 -116 -116 -133 -32 -37 -32
-38 -86 117 l-42 118 -49 0 c-31 0 -51 -5 -54 -12z"/>
<path d="M7909 2773 c-74 -92 -135 -171 -137 -175 -2 -4 15 -8 37 -8 34 0 44
5 68 35 l28 35 117 0 116 0 12 -35 c10 -31 16 -35 46 -35 25 0 34 4 34 17 0
10 -24 88 -52 175 l-53 158 -41 0 -41 0 -134 -167z m186 27 c10 -30 20 -61 23
-67 3 -10 -16 -13 -78 -13 -67 0 -81 3 -77 14 11 29 101 136 108 129 3 -5 15
-33 24 -63z"/>
<path d="M8800 2805 c-17 -75 -34 -154 -37 -175 -6 -39 -5 -40 26 -40 38 0 41
6 70 149 12 58 23 106 26 109 2 2 48 -55 101 -127 l97 -132 40 3 40 3 34 150
c18 83 35 160 38 173 5 20 2 22 -30 22 -28 0 -36 -4 -40 -22 -35 -160 -48
-214 -55 -221 -4 -5 -49 48 -101 117 l-93 126 -42 0 -41 0 -33 -135z"/>
<path d="M9863 2930 c-34 -14 -50 -47 -78 -165 -29 -122 -27 -151 11 -165 33
-13 265 -13 298 0 30 11 53 44 62 88 6 31 6 32 -29 32 -30 0 -37 -4 -46 -30
l-10 -30 -115 0 c-65 0 -116 4 -116 9 0 5 9 50 21 100 15 65 26 94 40 102 10
5 63 8 117 7 l97 -3 0 -27 c-1 -26 2 -28 36 -28 33 0 37 3 43 31 9 45 8 47
-14 69 -18 18 -33 20 -157 19 -76 0 -148 -4 -160 -9z"/>
<path d="M10741 2783 c-19 -87 -36 -166 -39 -175 -4 -17 9 -18 161 -18 154 0
167 1 177 19 25 48 19 51 -120 51 -140 0 -142 1 -121 54 6 17 18 19 97 18 124
-2 158 6 162 41 l3 27 -122 0 -121 0 6 31 c3 17 6 35 6 40 0 5 63 9 139 9 117
0 140 2 145 16 17 43 15 44 -167 44 l-172 0 -34 -157z"/>
<path d="M6082 2089 c-24 -45 -68 -131 -98 -190 l-56 -109 -1719 0 c-1712 0
-1719 0 -1719 -20 0 -20 7 -20 1738 -20 l1738 0 72 145 c40 80 76 145 81 145
5 0 17 -32 26 -72 26 -113 134 -518 142 -532 3 -5 41 60 83 144 43 84 84 156
91 161 8 5 65 9 127 9 105 0 112 1 112 20 0 19 -7 20 -138 20 l-138 0 -54
-105 c-30 -58 -59 -106 -65 -105 -12 0 -8 -12 -85 280 -35 129 -67 252 -72
273 -6 20 -13 37 -17 37 -4 0 -26 -37 -49 -81z"/>
<path d="M6940 1770 l0 -30 1358 2 1357 3 0 25 0 25 -1357 3 -1358 2 0 -30z"/>
<path d="M2260 1005 c0 -78 3 -95 15 -95 10 0 15 11 15 35 0 33 2 35 34 35 28
0 38 -6 56 -35 15 -25 29 -35 46 -35 l25 0 -21 30 -21 29 21 21 c11 11 20 33
20 49 0 45 -31 61 -117 61 l-73 0 0 -95z m148 33 c-3 -20 -10 -23 -60 -26 -56
-3 -58 -2 -58 23 0 24 2 25 61 25 57 0 60 -1 57 -22z"/>
<path d="M2557 1094 c-4 -4 -7 -47 -7 -96 l0 -88 85 0 c69 0 85 3 85 15 0 12
-14 15 -65 15 -63 0 -65 1 -65 25 0 24 3 25 60 25 47 0 60 3 60 15 0 12 -13
15 -60 15 -53 0 -60 2 -60 20 0 18 7 20 66 20 57 0 65 2 62 18 -3 14 -16 17
-79 20 -41 1 -78 0 -82 -4z"/>
<path d="M2834 1091 c-2 -2 -4 -44 -4 -93 0 -80 2 -89 18 -86 11 2 18 14 20
36 l3 32 64 0 c53 0 66 3 75 19 15 30 12 59 -10 81 -16 16 -31 19 -91 17 -39
-1 -72 -4 -75 -6z m144 -53 c-3 -20 -10 -23 -55 -26 -51 -3 -53 -2 -53 22 0
25 3 26 56 26 52 0 55 -1 52 -22z"/>
<path d="M3127 1093 c-4 -3 -7 -46 -7 -95 0 -80 2 -89 18 -86 11 2 18 14 20
36 5 47 46 45 87 -4 19 -23 37 -35 49 -33 17 4 16 6 -4 32 l-22 28 21 20 c28
26 28 73 -1 93 -23 16 -148 23 -161 9z m141 -55 c-3 -20 -10 -23 -55 -26 -51
-3 -53 -2 -53 22 0 25 3 26 56 26 52 0 55 -1 52 -22z"/>
<path d="M3443 1090 c-21 -9 -23 -16 -23 -89 0 -63 3 -80 16 -85 29 -11 160
-6 172 6 7 7 12 40 12 79 0 59 -3 70 -22 83 -25 18 -118 21 -155 6z m135 -87
l-3 -58 -60 0 -60 0 -3 44 c-5 67 -1 71 68 71 l61 0 -3 -57z"/>
<path d="M3760 1093 c-8 -3 -21 -12 -27 -21 -15 -19 -17 -100 -3 -136 9 -25
13 -26 88 -26 89 0 102 8 102 62 l0 38 -51 0 c-36 0 -49 -4 -47 -12 3 -7 17
-14 32 -16 19 -2 26 -8 24 -20 -3 -13 -15 -17 -58 -17 l-55 0 -3 58 -3 57 61
0 c33 0 60 -4 60 -10 0 -5 9 -10 20 -10 23 0 26 22 5 40 -15 13 -120 22 -145
13z"/>
<path d="M4037 1093 c-4 -3 -7 -46 -7 -95 0 -80 2 -89 18 -86 11 2 18 14 20
36 3 28 7 32 33 32 22 0 34 -8 51 -35 15 -23 31 -35 46 -35 l23 0 -21 30 -21
29 21 21 c27 27 26 74 -2 94 -23 16 -148 23 -161 9z m143 -58 c0 -24 -3 -25
-55 -25 -52 0 -55 1 -55 25 0 24 3 25 55 25 52 0 55 -1 55 -25z"/>
<path d="M4423 1092 c-13 -8 -103 -160 -103 -173 0 -18 39 -9 45 11 5 17 15
20 66 20 48 0 61 -4 71 -20 12 -18 48 -29 48 -14 0 3 -20 43 -45 89 -45 82
-62 100 -82 87z m32 -72 c20 -39 20 -40 -20 -40 -19 0 -35 2 -35 5 0 9 30 65
35 65 2 0 11 -13 20 -30z"/>
<path d="M4650 1006 c0 -79 3 -96 15 -96 12 0 15 13 15 60 0 33 3 60 8 60 4 0
21 -26 38 -58 40 -75 58 -75 104 3 l35 60 3 -63 c3 -54 6 -62 22 -62 18 0 20
7 20 88 0 49 -3 91 -6 94 -15 16 -47 -11 -84 -69 -22 -36 -44 -62 -48 -59 -3
4 -23 35 -42 69 -24 42 -43 63 -58 65 -21 3 -22 1 -22 -92z"/>
<path d="M5020 1006 c0 -79 3 -96 15 -96 12 0 15 13 15 60 0 33 3 60 8 60 4 0
21 -26 38 -58 17 -31 38 -58 47 -60 11 -2 30 17 56 59 l40 63 3 -59 c2 -48 7
-60 21 -63 16 -3 18 5 15 90 -3 84 -5 93 -22 93 -14 0 -33 -21 -60 -68 -23
-37 -45 -66 -50 -64 -5 2 -25 32 -45 68 -26 44 -44 65 -59 67 -21 3 -22 1 -22
-92z"/>
<path d="M5446 1048 c-18 -29 -43 -72 -55 -95 -21 -42 -21 -43 -2 -43 11 0 25
9 31 20 9 17 21 20 70 20 49 0 61 -3 70 -20 6 -11 20 -20 31 -20 19 0 17 7
-22 78 -44 81 -66 112 -81 112 -4 0 -23 -24 -42 -52z m67 -33 l17 -35 -41 0
c-22 0 -39 3 -37 8 37 75 38 75 61 27z"/>
<path d="M5692 1093 c-44 -6 -36 -27 11 -31 l37 -3 0 -75 c0 -67 2 -74 20 -74
18 0 20 7 20 74 l0 75 33 3 c20 2 32 8 32 18 0 12 -14 15 -60 16 -33 1 -75 -1
-93 -3z"/>
<path d="M5957 1093 c-4 -3 -7 -46 -7 -95 0 -77 2 -89 16 -86 13 2 17 18 18
86 2 77 -9 114 -27 95z"/>
<path d="M6140 1093 c-14 -3 -31 -10 -37 -15 -17 -14 -17 -140 -1 -156 7 -7
42 -12 88 -12 46 0 81 5 88 12 14 14 16 136 3 157 -10 15 -96 23 -141 14z
m108 -90 l-3 -58 -55 0 -55 0 -3 58 -3 57 61 0 61 0 -3 -57z"/>
<path d="M6567 1094 c-4 -4 -7 -35 -7 -68 l0 -60 -63 62 c-88 87 -97 84 -97
-28 0 -73 3 -90 15 -90 12 0 15 14 15 67 l0 67 68 -67 c94 -93 104 -91 100 25
-3 84 -12 111 -31 92z"/>
<path d="M7398 1094 c-5 -4 -8 -47 -8 -96 l0 -88 81 0 c112 0 119 5 119 89 0
52 -4 72 -17 82 -18 15 -163 26 -175 13z m150 -91 l-3 -58 -57 -3 -58 -3 0 61
0 60 60 0 61 0 -3 -57z"/>
<path d="M7697 1094 c-4 -4 -7 -47 -7 -96 0 -82 1 -88 20 -88 20 0 21 5 18 92
-3 84 -12 111 -31 92z"/>
<path d="M7906 1062 c-13 -20 -38 -63 -55 -94 -31 -55 -32 -58 -12 -58 11 0
25 9 31 20 9 17 21 20 70 20 49 0 61 -3 70 -20 6 -11 20 -20 31 -20 18 0 15 9
-28 89 -27 50 -56 92 -66 95 -12 3 -25 -7 -41 -32z m59 -42 c20 -39 20 -40
-20 -40 -39 0 -44 13 -19 48 19 28 20 28 39 -8z"/>
<path d="M8170 1087 c-22 -11 -25 -19 -28 -81 -4 -89 3 -96 88 -96 94 0 100 3
100 56 l0 44 -51 0 c-58 0 -66 -23 -10 -28 24 -3 31 -8 29 -20 -3 -14 -15 -17
-58 -17 l-55 0 -3 58 -3 57 55 0 c30 0 58 -4 61 -10 11 -18 35 -11 35 10 0 37
-105 55 -160 27z"/>
<path d="M8447 1093 c-4 -3 -7 -46 -7 -95 0 -81 2 -88 20 -88 18 0 20 7 20 67
l0 67 68 -67 c93 -92 102 -90 102 23 0 83 -1 90 -20 90 -18 0 -20 -7 -20 -62
l0 -62 -68 67 c-65 65 -81 75 -95 60z"/>
<path d="M8783 1090 c-21 -9 -23 -16 -23 -89 0 -92 -1 -91 100 -91 87 0 100
11 100 89 0 79 -12 92 -91 97 -35 2 -74 0 -86 -6z m135 -87 l-3 -58 -60 0 -60
0 -3 58 -3 57 66 0 66 0 -3 -57z"/>
<path d="M9083 1090 c-27 -11 -39 -51 -23 -79 9 -18 20 -21 75 -21 63 0 65 -1
65 -25 0 -23 -4 -25 -47 -25 -29 0 -53 6 -65 17 -25 22 -45 5 -29 -26 10 -18
21 -21 84 -21 82 0 97 9 97 56 0 42 -15 52 -85 56 -48 2 -60 7 -63 21 -3 14 5
17 52 17 31 0 56 -4 56 -10 0 -5 9 -10 20 -10 27 0 25 25 -2 44 -24 17 -99 20
-135 6z"/>
<path d="M9347 1093 c-39 -6 -28 -27 16 -31 l37 -3 0 -75 c0 -58 3 -74 15 -74
11 0 15 17 17 73 l3 72 35 5 c22 3 35 10 35 20 0 12 -14 15 -65 16 -36 1 -78
-1 -93 -3z"/>
<path d="M9607 1094 c-4 -4 -7 -47 -7 -96 0 -82 1 -88 20 -88 20 0 21 5 18 92
-3 84 -12 111 -31 92z"/>
<path d="M9785 1093 c-37 -10 -45 -24 -45 -85 0 -92 6 -98 100 -98 68 0 81 3
90 19 5 11 10 27 10 35 0 24 -37 19 -43 -5 -5 -18 -12 -20 -59 -17 l-53 3 -3
58 -3 57 61 0 c47 0 60 -3 60 -15 0 -8 9 -15 20 -15 21 0 27 24 11 49 -10 15
-108 25 -146 14z"/>
<path d="M6982 1038 c-7 -7 -12 -24 -12 -38 0 -33 17 -50 50 -50 32 0 50 17
50 46 0 44 -58 72 -88 42z"/>
</g>
</svg>
